<svg id="Capa_1" data-name="Capa 1" xmlns="http://www.w3.org/2000/svg"  width="15" height="15"  viewBox="0 0 54 54"><defs><style>.cls-1{fill:#f90000;}.cls-2{fill:#db0716;}.cls-3{fill:#fff;}</style></defs><path class="cls-1" d="M53,27h0A26,26,0,0,1,27,53h0A26,26,0,0,1,1,27H1A26,26,0,0,1,27,1h0A26,26,0,0,1,53,27Z"/><path class="cls-2" d="M27,54A27,27,0,1,1,54,27,27,27,0,0,1,27,54ZM27,2A25,25,0,1,0,52,27,25,25,0,0,0,27,2Z"/><path class="cls-3" d="M27,35.66,18,20.73a.7.7,0,0,1,.58-1.06L36,19.34a.7.7,0,0,1,.62,1L28.16,35.64A.69.69,0,0,1,27,35.66Z"/><path class="cls-3" d="M18.52,18.67,36,18.35a1.64,1.64,0,0,1,1.48.82,1.68,1.68,0,0,1,0,1.69L29,36.12a1.68,1.68,0,0,1-1.45.88,1.7,1.7,0,0,1-1.49-.82l-9-14.94a1.7,1.7,0,0,1,0-1.69A1.68,1.68,0,0,1,18.52,18.67Zm17,1.68-16.38.31,8.45,14Z"/></svg>